<svg width="40" height="41" viewBox="0 0 40 41" fill="none" xmlns="http://www.w3.org/2000/svg">
<path d="M28.334 3.83301H11.6673C7.06494 3.83301 3.33398 7.56397 3.33398 12.1663V28.833C3.33398 33.4354 7.06494 37.1663 11.6673 37.1663H28.334C32.9364 37.1663 36.6673 33.4354 36.6673 28.833V12.1663C36.6673 7.56397 32.9364 3.83301 28.334 3.83301Z" stroke="#FF4343" stroke-width="2" stroke-linecap="round" stroke-linejoin="round"/>
<path d="M26.6675 19.4495C26.8732 20.8366 26.6362 22.2532 25.9904 23.4979C25.3446 24.7425 24.3227 25.7519 23.0702 26.3823C21.8177 27.0127 20.3982 27.2322 19.0138 27.0094C17.6294 26.7866 16.3504 26.133 15.3589 25.1415C14.3673 24.1499 13.7137 22.871 13.4909 21.4865C13.2682 20.1021 13.4876 18.6827 14.118 17.4301C14.7485 16.1776 15.7578 15.1558 17.0025 14.5099C18.2471 13.8641 19.6637 13.6272 21.0508 13.8329C22.4657 14.0427 23.7756 14.702 24.787 15.7134C25.7984 16.7248 26.4577 18.0347 26.6675 19.4495Z" stroke="#FF4343" stroke-width="2" stroke-linecap="round" stroke-linejoin="round"/>
<path d="M29.166 11.333H29.1814" stroke="#FF4343" stroke-width="2" stroke-linecap="round" stroke-linejoin="round"/>
</svg>
