<svg width="32" height="33" viewBox="0 0 32 33" fill="none" xmlns="http://www.w3.org/2000/svg">
<path d="M30.6673 4.49974C29.3905 5.40037 27.9768 6.08921 26.4807 6.53974C25.6776 5.61642 24.6104 4.96199 23.4234 4.66497C22.2363 4.36795 20.9866 4.44266 19.8434 4.87901C18.7002 5.31535 17.7186 6.09227 17.0313 7.10469C16.344 8.11711 15.9842 9.31618 16.0007 10.5397V11.8731C13.6575 11.9338 11.3357 11.4142 9.242 10.3603C7.14831 9.30651 5.34774 7.75125 4.00065 5.83307C4.00065 5.83307 -1.33268 17.8331 10.6673 23.1664C7.92135 25.0304 4.65019 25.965 1.33398 25.8331C13.334 32.4997 28.0007 25.8331 28.0007 10.4997C27.9994 10.1283 27.9637 9.75786 27.894 9.39307C29.2548 8.05106 30.2151 6.35669 30.6673 4.49974Z" stroke="#3D73C4" stroke-width="2" stroke-linecap="round" stroke-linejoin="round"/>
</svg>
