<svg width="77" height="19" viewBox="0 0 77 19" fill="none" xmlns="http://www.w3.org/2000/svg">
<path d="M4.88 4.528C3.152 4.624 2.208 4.672 2.048 4.672C1.664 4.672 1.28 4.44 0.896 3.976C0.512 3.496 0.32 3 0.32 2.488C0.32 1.704 2.6 1.312 7.16 1.312C9.496 1.312 11.216 1.552 12.32 2.032C13.424 2.512 13.976 3.096 13.976 3.784C13.976 3.992 13.856 4.192 13.616 4.384C13.376 4.56 13.072 4.648 12.704 4.648C12.336 4.648 11.664 4.624 10.688 4.576C9.712 4.528 8.824 4.496 8.024 4.48C8.088 4.672 8.12 4.896 8.12 5.152C8.12 5.408 8.024 5.912 7.832 6.664C7.656 7.416 7.4 8.464 7.064 9.808C6.728 11.136 6.36 12.752 5.96 14.656C5.56 16.544 5.28 17.672 5.12 18.04C4.976 18.392 4.832 18.568 4.688 18.568C4.352 18.568 3.928 18.264 3.416 17.656C2.92 17.032 2.672 16.528 2.672 16.144C2.672 15.76 3 14.176 3.656 11.392C4.312 8.592 4.72 6.304 4.88 4.528ZM25.0627 17.824C25.0627 18.48 24.6067 18.808 23.6947 18.808C22.4467 18.808 21.1347 18.16 19.7587 16.864C18.3987 15.568 17.4307 14.216 16.8547 12.808C16.5987 13.576 16.4227 14.096 16.3267 14.368C16.2307 14.64 16.0867 15.072 15.8947 15.664C15.7027 16.256 15.5507 16.696 15.4387 16.984C15.3427 17.272 15.2307 17.576 15.1027 17.896C14.8627 18.504 14.6307 18.808 14.4067 18.808C14.0387 18.808 13.5907 18.504 13.0627 17.896C12.5507 17.272 12.2947 16.768 12.2947 16.384C12.2947 16 12.4787 15.288 12.8467 14.248C13.9347 11.064 14.5587 8.16 14.7187 5.536C14.4147 5.296 14.1427 4.96 13.9027 4.528C13.6627 4.096 13.5427 3.736 13.5427 3.448C13.5427 2.968 14.1587 2.464 15.3907 1.936C16.6387 1.408 18.0707 1.144 19.6867 1.144C21.3187 1.144 22.6787 1.528 23.7667 2.296C24.8547 3.064 25.3987 4.064 25.3987 5.296C25.3987 6.208 25.1267 7.088 24.5827 7.936C24.0547 8.768 23.4707 9.424 22.8307 9.904C22.2067 10.368 21.6227 10.792 21.0787 11.176C20.5507 11.56 20.2867 11.808 20.2867 11.92C20.2867 12.304 20.4147 12.672 20.6707 13.024C20.9267 13.36 21.2867 13.76 21.7507 14.224C22.2147 14.672 22.6147 15.056 22.9507 15.376C23.2867 15.68 23.5587 15.936 23.7667 16.144C23.9907 16.352 24.2067 16.568 24.4147 16.792C24.8467 17.208 25.0627 17.552 25.0627 17.824ZM21.7027 5.536C21.7027 4.864 21.0467 4.528 19.7347 4.528C19.1107 4.528 18.3667 4.704 17.5027 5.056C17.9027 5.664 18.1027 6.224 18.1027 6.736C18.1027 7.664 17.9747 8.688 17.7187 9.808C17.8947 9.68 18.2227 9.456 18.7027 9.136C19.1827 8.8 19.5507 8.536 19.8067 8.344C20.0787 8.136 20.3827 7.872 20.7187 7.552C21.3747 6.928 21.7027 6.256 21.7027 5.536ZM37.4847 9.688C38.1247 9.688 38.5807 9.752 38.8528 9.88C39.1408 9.992 39.2848 10.208 39.2848 10.528C39.2848 10.96 38.5888 11.4 37.1967 11.848C37.2287 13.064 37.2447 14.232 37.2447 15.352C37.2447 16.456 37.1567 17.288 36.9808 17.848C36.8047 18.392 36.5247 18.664 36.1407 18.664C35.7567 18.664 35.4527 18.472 35.2287 18.088C35.0207 17.688 34.8447 17.04 34.7007 16.144C34.5727 15.248 34.4367 14.064 34.2927 12.592C32.6607 12.96 31.4847 13.256 30.7647 13.48C29.5167 16.936 28.6847 18.664 28.2687 18.664C27.9327 18.664 27.4847 18.44 26.9247 17.992C26.3807 17.544 26.1087 17.08 26.1087 16.6C26.1087 16.328 26.4207 15.48 27.0447 14.056C26.7727 13.88 26.5327 13.632 26.3247 13.312C26.1327 12.976 26.0367 12.656 26.0367 12.352C26.0367 11.824 26.8287 11.32 28.4127 10.84C28.5407 10.52 28.6687 10.16 28.7967 9.76C28.9407 9.344 29.2847 8.384 29.8287 6.88C30.3887 5.376 30.8287 4.12 31.1487 3.112C31.2927 2.632 31.7887 2.184 32.6367 1.768C33.5007 1.352 34.1727 1.144 34.6528 1.144C35.2127 1.144 35.7087 1.92 36.1407 3.472C36.5887 5.024 36.9007 7.096 37.0767 9.688H37.4847ZM31.9407 10.096C32.4207 10.032 33.1167 9.952 34.0287 9.856C33.9807 9.392 33.9007 8.6 33.7887 7.48C33.6927 6.36 33.6207 5.552 33.5727 5.056C33.3007 5.952 32.7567 7.632 31.9407 10.096ZM52.0739 1.12C52.5219 1.12 52.9699 1.288 53.4179 1.624C53.8819 1.944 54.1139 2.256 54.1139 2.56C54.1139 2.864 54.0499 3.2 53.9219 3.568C53.8099 3.936 53.6179 4.4 53.3459 4.96C53.0899 5.504 52.8259 6.04 52.5539 6.568C52.2979 7.08 51.9539 7.76 51.5219 8.608C51.0899 9.44 50.7139 10.184 50.3939 10.84C50.0739 11.496 49.7139 12.272 49.3139 13.168C48.9299 14.064 48.6099 14.8 48.3539 15.376C48.0979 15.936 47.8259 16.488 47.5379 17.032C46.9779 18.12 46.4339 18.664 45.9059 18.664C45.6659 18.664 45.3299 18.488 44.8979 18.136C44.4819 17.784 44.2019 17.432 44.0579 17.08C43.5939 15.848 42.9779 13.28 42.2099 9.376C41.4419 5.472 41.0579 3.12 41.0579 2.32C41.0579 1.52 41.2739 1.12 41.7059 1.12C42.2499 1.12 42.8099 1.352 43.3859 1.816C43.9619 2.28 44.4099 2.896 44.7299 3.664C44.8579 3.984 44.9779 4.664 45.0899 5.704C45.2179 6.728 45.3619 8.008 45.5219 9.544C45.6979 11.064 45.8819 12.368 46.0739 13.456C47.6899 9.072 48.9619 5.92 49.8899 4C50.8339 2.08 51.5619 1.12 52.0739 1.12ZM57.9114 8.608C58.7594 8.608 59.6714 8.568 60.6474 8.488C61.6234 8.392 62.2234 8.344 62.4474 8.344C62.6874 8.344 62.8714 8.4 62.9994 8.512C63.1434 8.624 63.2154 8.76 63.2154 8.92C63.2154 9.624 62.5514 10.184 61.2234 10.6C59.8954 11.016 58.4794 11.256 56.9754 11.32C56.3514 13.256 56.0394 14.48 56.0394 14.992C56.0394 15.264 56.1754 15.4 56.4474 15.4C58.2714 15.4 60.1514 15.16 62.0874 14.68C62.7434 14.504 63.1194 14.416 63.2154 14.416C63.5194 14.416 63.6714 14.632 63.6714 15.064C63.6714 15.64 63.2474 16.2 62.3994 16.744C61.5514 17.288 60.4874 17.72 59.2074 18.04C57.9274 18.36 56.6714 18.52 55.4394 18.52C54.7034 18.52 54.0394 18.248 53.4474 17.704C52.8554 17.144 52.5594 16.496 52.5594 15.76C52.5594 15.008 52.9674 13.136 53.7834 10.144C54.6154 7.152 55.0554 4.896 55.1034 3.376C55.0874 3.328 55.0794 3.232 55.0794 3.088C55.0794 2.864 55.1114 2.688 55.1754 2.56C55.3514 2.112 55.8394 1.832 56.6394 1.72C57.4394 1.592 58.8794 1.528 60.9594 1.528C64.4154 1.528 66.1434 1.912 66.1434 2.68C66.1434 3.176 65.7194 3.52 64.8714 3.712C64.2954 3.84 63.5034 3.96 62.4954 4.072C60.9434 4.248 59.5594 4.504 58.3434 4.84C58.3434 5.928 58.1514 7.184 57.7674 8.608H57.9114ZM69.8101 0.759999C70.2101 0.759999 70.6981 1.024 71.2741 1.552C71.8501 2.08 72.1381 2.624 72.1381 3.184C72.1381 4.72 71.3461 7.696 69.7621 12.112C69.2181 13.664 68.9461 14.744 68.9461 15.352C68.9461 15.432 68.9621 15.48 68.9941 15.496C69.0261 15.512 69.3221 15.52 69.8821 15.52C70.4421 15.52 71.2101 15.44 72.1861 15.28C73.1781 15.104 73.9781 14.936 74.5861 14.776C75.2101 14.616 75.5781 14.536 75.6901 14.536C76.0901 14.536 76.2901 14.792 76.2901 15.304C76.2901 16.312 75.5221 17.128 73.9861 17.752C72.4661 18.36 70.6981 18.664 68.6821 18.664C67.8981 18.664 67.1781 18.376 66.5221 17.8C65.8821 17.208 65.5621 16.56 65.5621 15.856C65.5621 15.152 66.1541 12.88 67.3381 9.04C68.5221 5.184 69.1141 2.688 69.1141 1.552C69.1141 1.024 69.3461 0.759999 69.8101 0.759999Z" fill="white"/>
</svg>
