<svg width="40" height="40" viewBox="0 0 40 40" fill="none" xmlns="http://www.w3.org/2000/svg">
<path d="M9.6075 28.0529L4.65314 24.156C4.38251 23.9524 4.2939 23.593 4.45633 23.3578C5.25041 22.2078 6.7801 21.815 8.28309 22.3753L12.7638 24.917L9.6075 28.0529Z" fill="#43B97F"/>
<path d="M11.2695 29.7155L15.1766 34.6801C15.3802 34.9507 15.7396 35.0393 15.9748 34.8769L16.2702 34.6729C17.2429 34.0013 17.5751 32.7074 17.1012 31.4361L14.4156 26.5693L11.2695 29.7155Z" fill="#43B97F"/>
<path d="M9.89687 23.29L7.09375 26.075L9.60781 28.0525L12.7642 24.9165L9.89687 23.29Z" fill="#43B97F"/>
<path d="M10.9509 12.79C10.3287 12.1678 10.2795 11.1764 10.8354 10.4943C11.6304 9.51864 12.6265 8.43225 13.224 7.83472C14.0415 7.01728 14.1129 7.11493 14.9863 6.57958C15.1149 6.50074 15.2808 6.51975 15.3875 6.62639L17.1146 8.35354C17.2212 8.46018 17.2402 8.62613 17.1614 8.75471C16.6261 9.62808 16.7237 9.69944 15.9063 10.5169C15.3087 11.1144 14.2224 12.1105 13.2467 12.9056C12.5645 13.4613 11.5731 13.4122 10.9509 12.79Z" fill="#7BEBB4"/>
<path d="M26.5427 28.3828C25.9205 27.7606 25.8713 26.7692 26.4272 26.0871C27.2222 25.1114 28.2183 24.025 28.8158 23.4275C29.6333 22.6101 29.7046 22.7077 30.5781 22.1724C30.7067 22.0935 30.8726 22.1125 30.9792 22.2192L32.7064 23.9463C32.813 24.053 32.832 24.2189 32.7532 24.3475C32.2179 25.2209 32.3155 25.2922 31.4981 26.1097C30.9005 26.7072 29.8141 27.7033 28.8385 28.4984C28.1563 29.0542 27.1649 29.005 26.5427 28.3828Z" fill="#7BEBB4"/>
<path d="M18.7501 18.6795L24.8626 12.5671L5.92755 6.61788C5.53764 6.51834 5.15001 6.61313 4.89207 6.87107L3.29233 8.47081C2.75659 9.00656 2.98654 9.98865 3.74285 10.3948L18.7501 18.6795Z" fill="#43B97F"/>
<path d="M20.5837 11.2236L15.127 16.6804L18.7497 18.6803L24.8621 12.5678L20.5837 11.2236Z" fill="#43B97F"/>
<path d="M20.6543 20.5831L26.7667 14.4707L32.7159 33.4057C32.8155 33.7956 32.7207 34.1833 32.4628 34.4412L30.863 36.041C30.3273 36.5767 29.3452 36.3467 28.9391 35.5904L20.6543 20.5831Z" fill="#43B97F"/>
<path d="M32.1902 11.9012L21.9215 22.1699C20.1984 23.893 18.3666 25.5001 16.4487 26.9714L11.5631 30.7193C10.432 31.587 9.08682 31.6919 8.36384 30.9689C7.64086 30.246 7.7458 28.9008 8.61351 27.7697L12.3614 22.884C13.8327 20.9662 15.4398 19.1344 17.1629 17.4113L27.4316 7.14264C28.8354 5.73887 30.4476 4.56927 32.1508 3.76627C33.6176 3.0748 35.1766 2.6416 35.9339 3.39889C36.6912 4.15618 36.258 5.71523 35.5665 7.18196C34.7636 8.88528 33.594 10.4975 32.1902 11.9012Z" fill="#E0F3FC"/>
<path d="M35.9336 3.39928C35.6671 3.13275 35.301 3.01413 34.8747 3.00195C34.9054 3.79062 34.5634 4.79088 34.1105 5.75156C33.3075 7.45475 32.1379 9.06699 30.7341 10.4708L20.4654 20.7395C18.7424 22.4625 16.9105 24.0697 14.9927 25.5408L10.107 29.2887C9.38763 29.8406 8.58177 30.0834 7.9043 30.0014C7.95521 30.3773 8.10697 30.7126 8.36361 30.9692C9.08659 31.6922 10.4318 31.5872 11.5628 30.7195L16.4485 26.9716C18.3663 25.5004 20.1981 23.8933 21.9212 22.1702L32.19 11.9016C33.5937 10.4978 34.7633 8.88555 35.5663 7.18236C36.2577 5.71562 36.6909 4.15658 35.9336 3.39928Z" fill="#C3D3DB"/>
<path d="M33.0414 9.93521L32.6908 10.2859C32.3651 10.6115 28.7223 6.96867 29.0479 6.64302L29.3986 6.29237C29.6196 6.07134 29.944 6.00168 30.2082 6.11854C31.5246 6.70084 32.633 7.8093 33.2153 9.12564C33.332 9.38977 33.2624 9.71418 33.0414 9.93521Z" fill="#43B97F"/>
<path d="M9.47459 30.348C9.34966 30.348 9.22466 30.3004 9.12935 30.205C8.93866 30.0143 8.93866 29.7051 9.12935 29.5145L13.3934 25.2504C13.5841 25.0597 13.8933 25.0597 14.0839 25.2504C14.2746 25.4411 14.2746 25.7503 14.0839 25.9409L9.81984 30.205C9.72453 30.3003 9.59959 30.348 9.47459 30.348Z" fill="#43B97F" fill-opacity="0.92"/>
</svg>
