<svg width="40" height="40" viewBox="0 0 40 40" fill="none" xmlns="http://www.w3.org/2000/svg">
<path d="M17.1875 2H8.1875C7.60531 2 7.13281 2.4725 7.13281 3.05469V8.70289C7.13281 9.28578 7.60531 9.75758 8.1875 9.75758H17.1875C17.7697 9.75758 18.2422 9.28578 18.2422 8.70289V3.05469C18.2422 2.4725 17.7697 2 17.1875 2ZM16.1328 7.6482L12.6588 9.26539L9.24219 7.6482V4.10938H16.1328V7.6482Z" fill="#525C74"/>
<path d="M18.2417 3.05469V8.70289C18.2417 9.28578 17.7692 9.75758 17.187 9.75758H12.6582V9.3357L16.1323 7.6482V4.10938H12.6582V2H17.187C17.7692 2 18.2417 2.4725 18.2417 3.05469Z" fill="#444E66"/>
<path d="M22.3203 11.5622L21.8984 34.4137C21.8984 36.4373 20.6173 36.6637 18.5938 36.6637L12.1672 37.9997H9.19578L8.25781 37.6481L7.08641 37.9997H5.67031C3.64672 37.9997 2 36.353 2 34.3294V14.2763L2.42188 13.2497L2 12.1669V11.3175C2 9.29391 3.64672 7.64648 5.67031 7.64648H7.13L8.11719 8.32781L9.24219 7.64648H12.1672L15.9922 9.17156L19.5078 8.39813C21.0388 13.0535 22.314 9.59857 22.3203 11.5622Z" fill="#4AC88A"/>
<path d="M23.317 11.3181V34.3298C23.317 36.3535 21.6702 38.0004 19.6464 38.0004H12.6582V8.28027L13.7876 7.64746H19.6465C21.6702 7.64746 23.317 9.29425 23.317 11.3181Z" fill="#4AC88A"/>
<path d="M23.3173 12.1669H14.2766V7.64648H12.1672V12.1669H9.23291L9.23938 7.64648H7.13L7.12353 12.1669H2V14.2763H7.12051L7.08641 37.9997H9.19578L9.22988 14.2763H12.1672V37.9997H14.2766V14.2763H23.3173V12.1669Z" fill="#43B97F"/>
<path d="M23.317 12.1651H13.7876V7.64746H12.6582V38.0004H13.7876V14.2827H23.317V12.1651Z" fill="#43B97F"/>
<path d="M28.1661 16.6826H21.9995C20.0019 16.6826 18.377 18.3075 18.377 20.3052V22.2591C18.377 22.8435 18.8513 23.3179 19.4358 23.3179H30.7299C31.3144 23.3179 31.7887 22.8436 31.7887 22.2591V20.3052C31.7887 18.3075 30.1638 16.6826 28.1661 16.6826ZM29.671 21.2003L25.0828 22.2549L20.4946 21.2003V20.3052C20.4946 19.4751 21.1693 18.8002 21.9995 18.8002H28.1661C28.9963 18.8002 29.6711 19.475 29.6711 20.3052V21.2003H29.671Z" fill="#525C74"/>
<path d="M31.7879 20.3053V22.2592C31.7879 22.8436 31.3136 23.318 30.7291 23.318H25.082V22.5363L29.6703 21.2003V20.3053C29.6703 19.4751 28.9954 18.8003 28.1653 18.8003H25.082V16.6826H28.1653C30.163 16.6827 31.7879 18.3076 31.7879 20.3053Z" fill="#444E66"/>
<path d="M37.9993 24.2411V34.9592C37.9993 36.6357 36.6349 38.0002 34.9584 38.0002H15.205C13.5285 38.0002 12.1641 36.6357 12.1641 34.9592V24.2411C12.1641 22.5647 13.5285 21.2002 15.205 21.2002H34.9584C36.6349 21.2002 37.9993 22.5646 37.9993 24.2411Z" fill="#43B97F"/>
<path d="M37.9997 24.2411V34.9592C37.9997 36.6357 36.6352 38.0002 34.9588 38.0002H25.082V21.2002H34.9588C36.6352 21.2002 37.9997 22.5646 37.9997 24.2411Z" fill="#7BEBB4"/>
</svg>
