<svg width="40" height="40" viewBox="0 0 40 40" fill="none" xmlns="http://www.w3.org/2000/svg">
<g clip-path="url(#clip0_2811_1418)">
<path d="M8.83336 13H0V40H8.83336V13Z" fill="#E8EAEA"/>
<path d="M39.9994 13H31.166V40H39.9994V13Z" fill="#E8EAEA"/>
<path d="M0 13.5004H40C40 12.5004 39.1666 11.667 38.1666 11.667H1.83336C0.833359 11.667 0 12.5004 0 13.5004Z" fill="#43B97F"/>
<path d="M31.1673 8.5H8.83398V40H31.1673V8.5Z" fill="#F2F2F2"/>
<path d="M32.4159 6.66699H7.58266C7.08266 6.66699 6.66602 7.08363 6.66602 7.58363C6.66602 8.08363 7.08266 8.50035 7.58266 8.50035H32.416C32.916 8.50035 33.3327 8.08371 33.3327 7.58371C33.3327 7.08371 32.9159 6.66699 32.4159 6.66699Z" fill="#43B97F"/>
<path d="M6.33336 15.5H2.5V19.75H6.33336V15.5Z" fill="#43B97F"/>
<path d="M6.33336 21.417H2.5V25.667H6.33336V21.417Z" fill="#43B97F"/>
<path d="M6.33336 27.333H2.5V31.583H6.33336V27.333Z" fill="#43B97F"/>
<path d="M6.33336 33.25H2.5V37.5H6.33336V33.25Z" fill="#43B97F"/>
<path d="M37.4994 15.5H33.666V19.75H37.4994V15.5Z" fill="#43B97F"/>
<path d="M37.4994 21.417H33.666V25.667H37.4994V21.417Z" fill="#43B97F"/>
<path d="M37.4994 27.333H33.666V31.583H37.4994V27.333Z" fill="#43B97F"/>
<path d="M37.4994 33.25H33.666V37.5H37.4994V33.25Z" fill="#43B97F"/>
<path d="M15.5006 22.917H11.334V27.167H15.5006V22.917Z" fill="#43B97F"/>
<path d="M24.4166 29.583H15.5V39.9996H24.4166V29.583Z" fill="#43B97F"/>
<path d="M40 38.25H0V40H40V38.25Z" fill="#ACB3BA"/>
<path d="M15.5006 11.083H11.334V15.333H15.5006V11.083Z" fill="#43B97F"/>
<path d="M15.5006 17H11.334V21.25H15.5006V17Z" fill="#43B97F"/>
<path d="M22.0846 11.083H17.918V15.333H22.0846V11.083Z" fill="#43B97F"/>
<path d="M22.0846 17H17.918V21.25H22.0846V17Z" fill="#43B97F"/>
<path d="M22.0846 22.916H17.918V27.166H22.0846V22.916Z" fill="#43B97F"/>
<path d="M28.6666 11.083H24.5V15.333H28.6666V11.083Z" fill="#43B97F"/>
<path d="M28.6666 17H24.5V21.25H28.6666V17Z" fill="#43B97F"/>
<path d="M28.6666 22.916H24.5V27.166H28.6666V22.916Z" fill="#43B97F"/>
</g>
<defs>
<clipPath id="clip0_2811_1418">
<rect width="40" height="40" fill="white"/>
</clipPath>
</defs>
</svg>
