<svg width="40" height="40" viewBox="0 0 40 40" fill="none" xmlns="http://www.w3.org/2000/svg">
<path d="M37.9984 22.051V17.9495C37.9984 17.1455 37.3466 16.4937 36.5426 16.4937H34.9739C34.3467 16.4937 33.7902 16.0919 33.593 15.4964C33.3734 14.8331 33.1065 14.1914 32.7965 13.5751C32.5142 13.0138 32.6222 12.3352 33.0665 11.8909L34.1763 10.781C34.7449 10.2125 34.7449 9.29072 34.1763 8.72218L31.2762 5.822C30.7076 5.25345 29.7859 5.25345 29.2173 5.822L28.1075 6.93186C27.6631 7.37618 26.9846 7.48418 26.4233 7.20182C25.807 6.8918 25.1652 6.62495 24.5019 6.40532C23.9065 6.20815 23.5046 5.65163 23.5046 5.02441V3.45581C23.5046 2.65178 22.8528 2 22.0488 2H17.9473C17.1433 2 16.4915 2.65178 16.4915 3.45581V5.02448C16.4915 5.6517 16.0897 6.20822 15.4942 6.40539C14.8309 6.62502 14.1892 6.89187 13.5729 7.2019C13.0116 7.48425 12.333 7.37618 11.8887 6.93193L10.7788 5.82207C10.2103 5.25352 9.28853 5.25352 8.71998 5.82207L5.81995 8.72225C5.2514 9.2908 5.2514 10.2125 5.81995 10.7811L6.92981 11.8909C7.37405 12.3353 7.48213 13.0138 7.19977 13.5751C6.88975 14.1914 6.6229 14.8332 6.40327 15.4965C6.2639 15.9173 5.94512 16.2414 5.54875 16.3953C5.38425 16.4592 5.27878 16.5662 5.09479 16.5662H3.52612C2.72209 16.5662 2.07031 17.2179 2.07031 18.022V21.9786C2.07031 22.7826 2.72209 23.4344 3.52612 23.4344H5.09479C5.72201 23.4344 6.27854 23.9087 6.47571 24.5041C6.69533 25.1674 6.96218 25.8091 7.27221 26.4255C7.55456 26.9868 7.44649 27.6653 7.00224 28.1097L5.96482 29.2195C5.39627 29.7881 5.39627 30.7098 5.96482 31.2784L8.72013 34.0337C9.28867 34.6022 10.2104 34.6022 10.779 34.0337L11.8888 32.9238C12.3331 32.4795 13.0117 32.3715 13.573 32.6538C14.1893 32.9639 14.976 33.3032 15.6393 33.5228C16.2347 33.7199 16.6365 34.2765 16.6365 34.9037V36.4724C16.6365 37.2764 17.2883 37.9282 18.0924 37.9282H21.9765C22.7805 37.9282 23.4323 37.2764 23.4323 36.4724V34.9037C23.4323 34.7197 23.5393 34.6142 23.6032 34.4497C23.7571 34.0534 24.0813 33.7346 24.502 33.5952C25.1653 33.3756 25.8071 33.1087 26.4233 32.7987C26.9846 32.5164 27.6632 32.6244 28.1075 33.0687L29.2174 34.1785C29.7859 34.7471 30.7077 34.7471 31.2762 34.1785L34.1764 31.2784C34.745 30.7098 34.745 29.7881 34.1764 29.2195L33.0666 28.1097C32.6223 27.6653 32.5142 26.9868 32.7966 26.4255C33.1066 25.8092 33.3735 25.1674 33.5931 24.5041C33.7903 23.9087 34.3468 23.5068 34.974 23.5068H36.5427C37.3466 23.5068 37.9984 22.855 37.9984 22.051Z" fill="#7BEBB4"/>
<path d="M23.6054 34.4501C23.5416 34.6145 23.5069 34.7927 23.5069 34.9767V36.5449C23.5069 37.349 22.855 38.0009 22.0509 38.0009H17.9496C17.1456 38.0009 16.4937 37.349 16.4937 36.5449V34.9767C16.4937 34.3494 16.0916 33.7924 15.4962 33.5954C14.8334 33.3759 14.1917 33.1093 13.5752 32.7993C13.0138 32.5168 12.3351 32.6247 11.8911 33.0688L10.7814 34.1785C10.2128 34.7471 9.29065 34.7471 8.72203 34.1785L5.82171 31.2789C5.25381 30.7103 5.25381 29.7881 5.82171 29.2195L6.93215 28.1098C7.37618 27.6658 7.48411 26.9871 7.20161 26.4257C6.89158 25.8093 6.62502 25.1675 6.40554 24.5047C6.20851 23.9093 5.65148 23.5072 5.02419 23.5072H3.45596C2.65192 23.5072 2 22.8553 2 22.0513V17.95C2 17.1459 2.65192 16.494 3.45596 16.494H5.02419C5.20818 16.494 5.38637 16.4593 5.5508 16.3955C5.54935 16.4861 5.54862 16.5773 5.54862 16.6686C5.54862 26.4901 13.5108 34.4523 23.3323 34.4523C23.4236 34.4523 23.5148 34.4516 23.6054 34.4501Z" fill="#43B97F"/>
<path d="M20.0007 31.9516C26.6016 31.9516 31.9526 26.6006 31.9526 19.9997C31.9526 13.3989 26.6016 8.04785 20.0007 8.04785C13.3999 8.04785 8.04883 13.3989 8.04883 19.9997C8.04883 26.6006 13.3999 31.9516 20.0007 31.9516Z" fill="#43B97F"/>
<path d="M20.0006 29.4173C25.2013 29.4173 29.4173 25.2013 29.4173 20.0006C29.4173 14.8 25.2013 10.584 20.0006 10.584C14.8 10.584 10.584 14.8 10.584 20.0006C10.584 25.2013 14.8 29.4173 20.0006 29.4173Z" fill="#F8F7F7"/>
</svg>
