<svg width="56" height="56" viewBox="0 0 56 56" fill="none" xmlns="http://www.w3.org/2000/svg">
<circle cx="28" cy="28" r="28" fill="white"/>
<path d="M36.3333 11.3333H19.6666C15.0643 11.3333 11.3333 15.0642 11.3333 19.6666V36.3333C11.3333 40.9356 15.0643 44.6666 19.6666 44.6666H36.3333C40.9357 44.6666 44.6666 40.9356 44.6666 36.3333V19.6666C44.6666 15.0642 40.9357 11.3333 36.3333 11.3333Z" stroke="#FF4343" stroke-width="2" stroke-linecap="round" stroke-linejoin="round"/>
<path d="M34.6667 26.95C34.8724 28.3371 34.6355 29.7537 33.9896 30.9984C33.3438 32.243 32.3219 33.2524 31.0694 33.8828C29.8169 34.5132 28.3974 34.7327 27.013 34.5099C25.6286 34.2871 24.3496 33.6335 23.3581 32.6419C22.3665 31.6504 21.7129 30.3715 21.4901 28.987C21.2674 27.6026 21.4868 26.1832 22.1172 24.9306C22.7477 23.6781 23.757 22.6562 25.0017 22.0104C26.2463 21.3646 27.6629 21.1277 29.05 21.3333C30.4649 21.5432 31.7748 22.2025 32.7862 23.2139C33.7976 24.2253 34.4569 25.5351 34.6667 26.95Z" stroke="#FF4343" stroke-width="2" stroke-linecap="round" stroke-linejoin="round"/>
<path d="M37.1667 18.8333H37.1821" stroke="#FF4343" stroke-width="2" stroke-linecap="round" stroke-linejoin="round"/>
</svg>
