<svg width="56" height="56" viewBox="0 0 56 56" fill="none" xmlns="http://www.w3.org/2000/svg">
<circle cx="28" cy="28" r="28" fill="white"/>
<path d="M42.6666 16C41.3898 16.9006 39.9761 17.5895 38.48 18.04C37.677 17.1167 36.6098 16.4622 35.4227 16.1652C34.2356 15.8682 32.986 15.9429 31.8428 16.3793C30.6995 16.8156 29.7179 17.5925 29.0306 18.6049C28.3433 19.6174 27.9836 20.8164 28 22.04V23.3733C25.6568 23.4341 23.335 22.9144 21.2413 21.8606C19.1476 20.8068 17.3471 19.2515 16 17.3333C16 17.3333 10.6666 29.3333 22.6666 34.6666C19.9207 36.5306 16.6495 37.4652 13.3333 37.3333C25.3333 44 40 37.3333 40 22C39.9988 21.6286 39.963 21.2581 39.8933 20.8933C41.2541 19.5513 42.2144 17.8569 42.6666 16Z" stroke="#3D73C4" stroke-width="2" stroke-linecap="round" stroke-linejoin="round"/>
</svg>
