<svg width="77" height="19" viewBox="0 0 77 19" fill="none" xmlns="http://www.w3.org/2000/svg">
<path d="M5.38 4.528C3.652 4.624 2.708 4.672 2.548 4.672C2.164 4.672 1.78 4.44 1.396 3.976C1.012 3.496 0.82 3 0.82 2.488C0.82 1.704 3.1 1.312 7.66 1.312C9.996 1.312 11.716 1.552 12.82 2.032C13.924 2.512 14.476 3.096 14.476 3.784C14.476 3.992 14.356 4.192 14.116 4.384C13.876 4.56 13.572 4.648 13.204 4.648C12.836 4.648 12.164 4.624 11.188 4.576C10.212 4.528 9.324 4.496 8.524 4.48C8.588 4.672 8.62 4.896 8.62 5.152C8.62 5.408 8.524 5.912 8.332 6.664C8.156 7.416 7.9 8.464 7.564 9.808C7.228 11.136 6.86 12.752 6.46 14.656C6.06 16.544 5.78 17.672 5.62 18.04C5.476 18.392 5.332 18.568 5.188 18.568C4.852 18.568 4.428 18.264 3.916 17.656C3.42 17.032 3.172 16.528 3.172 16.144C3.172 15.76 3.5 14.176 4.156 11.392C4.812 8.592 5.22 6.304 5.38 4.528ZM25.5627 17.824C25.5627 18.48 25.1067 18.808 24.1947 18.808C22.9467 18.808 21.6347 18.16 20.2587 16.864C18.8987 15.568 17.9307 14.216 17.3547 12.808C17.0987 13.576 16.9227 14.096 16.8267 14.368C16.7307 14.64 16.5867 15.072 16.3947 15.664C16.2027 16.256 16.0507 16.696 15.9387 16.984C15.8427 17.272 15.7307 17.576 15.6027 17.896C15.3627 18.504 15.1307 18.808 14.9067 18.808C14.5387 18.808 14.0907 18.504 13.5627 17.896C13.0507 17.272 12.7947 16.768 12.7947 16.384C12.7947 16 12.9787 15.288 13.3467 14.248C14.4347 11.064 15.0587 8.16 15.2187 5.536C14.9147 5.296 14.6427 4.96 14.4027 4.528C14.1627 4.096 14.0427 3.736 14.0427 3.448C14.0427 2.968 14.6587 2.464 15.8907 1.936C17.1387 1.408 18.5707 1.144 20.1867 1.144C21.8187 1.144 23.1787 1.528 24.2667 2.296C25.3547 3.064 25.8987 4.064 25.8987 5.296C25.8987 6.208 25.6267 7.088 25.0827 7.936C24.5547 8.768 23.9707 9.424 23.3307 9.904C22.7067 10.368 22.1227 10.792 21.5787 11.176C21.0507 11.56 20.7867 11.808 20.7867 11.92C20.7867 12.304 20.9147 12.672 21.1707 13.024C21.4267 13.36 21.7867 13.76 22.2507 14.224C22.7147 14.672 23.1147 15.056 23.4507 15.376C23.7867 15.68 24.0587 15.936 24.2667 16.144C24.4907 16.352 24.7067 16.568 24.9147 16.792C25.3467 17.208 25.5627 17.552 25.5627 17.824ZM22.2027 5.536C22.2027 4.864 21.5467 4.528 20.2347 4.528C19.6107 4.528 18.8667 4.704 18.0027 5.056C18.4027 5.664 18.6027 6.224 18.6027 6.736C18.6027 7.664 18.4747 8.688 18.2187 9.808C18.3947 9.68 18.7227 9.456 19.2027 9.136C19.6827 8.8 20.0507 8.536 20.3067 8.344C20.5787 8.136 20.8827 7.872 21.2187 7.552C21.8747 6.928 22.2027 6.256 22.2027 5.536ZM37.9847 9.688C38.6247 9.688 39.0807 9.752 39.3528 9.88C39.6408 9.992 39.7848 10.208 39.7848 10.528C39.7848 10.96 39.0888 11.4 37.6967 11.848C37.7287 13.064 37.7447 14.232 37.7447 15.352C37.7447 16.456 37.6567 17.288 37.4808 17.848C37.3047 18.392 37.0247 18.664 36.6407 18.664C36.2567 18.664 35.9527 18.472 35.7287 18.088C35.5207 17.688 35.3447 17.04 35.2007 16.144C35.0727 15.248 34.9367 14.064 34.7927 12.592C33.1607 12.96 31.9847 13.256 31.2647 13.48C30.0167 16.936 29.1847 18.664 28.7687 18.664C28.4327 18.664 27.9847 18.44 27.4247 17.992C26.8807 17.544 26.6087 17.08 26.6087 16.6C26.6087 16.328 26.9207 15.48 27.5447 14.056C27.2727 13.88 27.0327 13.632 26.8247 13.312C26.6327 12.976 26.5367 12.656 26.5367 12.352C26.5367 11.824 27.3287 11.32 28.9127 10.84C29.0407 10.52 29.1687 10.16 29.2967 9.76C29.4407 9.344 29.7847 8.384 30.3287 6.88C30.8887 5.376 31.3287 4.12 31.6487 3.112C31.7927 2.632 32.2887 2.184 33.1367 1.768C34.0007 1.352 34.6727 1.144 35.1528 1.144C35.7127 1.144 36.2087 1.92 36.6407 3.472C37.0887 5.024 37.4007 7.096 37.5767 9.688H37.9847ZM32.4407 10.096C32.9207 10.032 33.6167 9.952 34.5287 9.856C34.4807 9.392 34.4007 8.6 34.2887 7.48C34.1927 6.36 34.1207 5.552 34.0727 5.056C33.8007 5.952 33.2567 7.632 32.4407 10.096ZM52.5739 1.12C53.0219 1.12 53.4699 1.288 53.9179 1.624C54.3819 1.944 54.6139 2.256 54.6139 2.56C54.6139 2.864 54.5499 3.2 54.4219 3.568C54.3099 3.936 54.1179 4.4 53.8459 4.96C53.5899 5.504 53.3259 6.04 53.0539 6.568C52.7979 7.08 52.4539 7.76 52.0219 8.608C51.5899 9.44 51.2139 10.184 50.8939 10.84C50.5739 11.496 50.2139 12.272 49.8139 13.168C49.4299 14.064 49.1099 14.8 48.8539 15.376C48.5979 15.936 48.3259 16.488 48.0379 17.032C47.4779 18.12 46.9339 18.664 46.4059 18.664C46.1659 18.664 45.8299 18.488 45.3979 18.136C44.9819 17.784 44.7019 17.432 44.5579 17.08C44.0939 15.848 43.4779 13.28 42.7099 9.376C41.9419 5.472 41.5579 3.12 41.5579 2.32C41.5579 1.52 41.7739 1.12 42.2059 1.12C42.7499 1.12 43.3099 1.352 43.8859 1.816C44.4619 2.28 44.9099 2.896 45.2299 3.664C45.3579 3.984 45.4779 4.664 45.5899 5.704C45.7179 6.728 45.8619 8.008 46.0219 9.544C46.1979 11.064 46.3819 12.368 46.5739 13.456C48.1899 9.072 49.4619 5.92 50.3899 4C51.3339 2.08 52.0619 1.12 52.5739 1.12ZM58.4114 8.608C59.2594 8.608 60.1714 8.568 61.1474 8.488C62.1234 8.392 62.7234 8.344 62.9474 8.344C63.1874 8.344 63.3714 8.4 63.4994 8.512C63.6434 8.624 63.7154 8.76 63.7154 8.92C63.7154 9.624 63.0514 10.184 61.7234 10.6C60.3954 11.016 58.9794 11.256 57.4754 11.32C56.8514 13.256 56.5394 14.48 56.5394 14.992C56.5394 15.264 56.6754 15.4 56.9474 15.4C58.7714 15.4 60.6514 15.16 62.5874 14.68C63.2434 14.504 63.6194 14.416 63.7154 14.416C64.0194 14.416 64.1714 14.632 64.1714 15.064C64.1714 15.64 63.7474 16.2 62.8994 16.744C62.0514 17.288 60.9874 17.72 59.7074 18.04C58.4274 18.36 57.1714 18.52 55.9394 18.52C55.2034 18.52 54.5394 18.248 53.9474 17.704C53.3554 17.144 53.0594 16.496 53.0594 15.76C53.0594 15.008 53.4674 13.136 54.2834 10.144C55.1154 7.152 55.5554 4.896 55.6034 3.376C55.5874 3.328 55.5794 3.232 55.5794 3.088C55.5794 2.864 55.6114 2.688 55.6754 2.56C55.8514 2.112 56.3394 1.832 57.1394 1.72C57.9394 1.592 59.3794 1.528 61.4594 1.528C64.9154 1.528 66.6434 1.912 66.6434 2.68C66.6434 3.176 66.2194 3.52 65.3714 3.712C64.7954 3.84 64.0034 3.96 62.9954 4.072C61.4434 4.248 60.0594 4.504 58.8434 4.84C58.8434 5.928 58.6514 7.184 58.2674 8.608H58.4114ZM70.3101 0.759999C70.7101 0.759999 71.1981 1.024 71.7741 1.552C72.3501 2.08 72.6381 2.624 72.6381 3.184C72.6381 4.72 71.8461 7.696 70.2621 12.112C69.7181 13.664 69.4461 14.744 69.4461 15.352C69.4461 15.432 69.4621 15.48 69.4941 15.496C69.5261 15.512 69.8221 15.52 70.3821 15.52C70.9421 15.52 71.7101 15.44 72.6861 15.28C73.6781 15.104 74.4781 14.936 75.0861 14.776C75.7101 14.616 76.0781 14.536 76.1901 14.536C76.5901 14.536 76.7901 14.792 76.7901 15.304C76.7901 16.312 76.0221 17.128 74.4861 17.752C72.9661 18.36 71.1981 18.664 69.1821 18.664C68.3981 18.664 67.6781 18.376 67.0221 17.8C66.3821 17.208 66.0621 16.56 66.0621 15.856C66.0621 15.152 66.6541 12.88 67.8381 9.04C69.0221 5.184 69.6141 2.688 69.6141 1.552C69.6141 1.024 69.8461 0.759999 70.3101 0.759999Z" fill="#43B97F"/>
</svg>
